PathFileType	4	(X/Y/Z)	marker.trc
DataRate	CameraRate	NumFrames	NumMarkers	Units	OrigDataRate	OrigDataStartFrame	OrigNumFrames
128	128	17	6	m	128	2884	3845
Frame#	Time	US29-1	US29-2	US29-3	US30-1	US30-2	US30-3	
		X1	Y1	Z1	X2	Y2	Z2	X3	Y3	Z3	X4	Y4	Z4	X5	Y5	Z5	X6	Y6	Z6	

2883	22.53125	0.194721207022667	0.306276977062225	0.0934185534715652	0.212964564561844	0.332230091094971	0.070535734295845	0.185037657618523	0.326683133840561	0.0963255241513252	0.139654129743576	0.310109108686447	0.0352738313376904	0.147379592061043	0.300377279520035	0.0581309981644154	0.132796809077263	0.31847295165062	0.0581960305571556	
2884	22.539062	0.190109714865685	0.303208351135254	0.0929723829030991	0.20865897834301	0.329019039869308	0.0701733529567719	0.180593997240067	0.323755234479904	0.0958595126867294	0.135226279497147	0.307712376117706	0.0347316227853298	0.142845615744591	0.297912985086441	0.0575858578085899	0.128415837883949	0.316149294376373	0.0576511584222317	
2885	22.546875	0.1853107213974	0.3001309633255	0.0925179123878479	0.204143777489662	0.32575848698616	0.0696753859519958	0.175950258970261	0.320755422115326	0.0954392179846764	0.130114018917084	0.305083334445953	0.0342142544686794	0.137915194034576	0.295031309127808	0.05678965523839	0.123855695128441	0.313846439123154	0.0570868588984013	
2886	22.554687	0.180180743336678	0.296986848115921	0.0920439586043358	0.199365586042404	0.322462499141693	0.0693398341536522	0.171052575111389	0.317733407020569	0.0949946418404579	0.125302612781525	0.302673280239105	0.0336203947663307	0.132841572165489	0.292519062757492	0.0561599172651768	0.119016095995903	0.311525166034698	0.0565097965300083	
2887	22.5625	0.174780130386353	0.29380601644516	0.0915902704000473	0.194755598902702	0.318768560886383	0.0709117650985718	0.165971383452415	0.314666509628296	0.094570629298687	0.120032347738743	0.300317347049713	0.0330453477799892	0.127632081508636	0.289859086275101	0.055550042539835	0.113851897418499	0.309170365333557	0.055926188826561	
2888	22.570312	0.169146284461021	0.29061621427536	0.0911303535103798	0.189527809619904	0.315364450216293	0.0705600082874298	0.160521894693375	0.311620950698853	0.0940876603126526	0.114621981978416	0.297951549291611	0.0324652604758739	0.122102841734886	0.287231624126434	0.054969672113657	0.108478598296642	0.306850910186768	0.0553272143006325	
2889	22.578125	0.163222417235374	0.287436485290527	0.0906918048858643	0.183959349989891	0.311969757080078	0.0703319162130356	0.154914647340775	0.308522373437881	0.0935993939638138	0.109794855117798	0.295539200305939	0.031490433961153	0.115984901785851	0.28443056344986	0.0542955696582794	0.102882035076618	0.304633140563965	0.0546809770166874	
2890	22.585937	0.156942993402481	0.284269660711288	0.0901904925704002	0.178158447146416	0.308518290519714	0.0696775689721107	0.148988097906113	0.305497676134109	0.0931396260857582	0.103099778294563	0.293342530727386	0.0312188751995564	0.110158145427704	0.282174080610275	0.0536973029375076	0.0971897169947624	0.302430927753448	0.0540845058858395	
2891	22.59375	0.150415077805519	0.281145632266998	0.0897268056869507	0.172097831964493	0.305104106664658	0.0693625956773758	0.142796412110329	0.302526623010635	0.0926477164030075	0.0969044640660286	0.291148006916046	0.0305805411189795	0.10362633317709	0.279758721590042	0.0531249307096004	0.0909662917256355	0.300373047590256	0.053484670817852	
2892	22.601562	0.143669486045837	0.278047144412994	0.0892556607723236	0.165736556053162	0.301720559597015	0.068945124745369	0.136319845914841	0.299590677022934	0.0921190232038498	0.0904055014252663	0.289042353630066	0.029942698776722	0.0942503958940506	0.279281437397003	0.0534216314554214	0.0845686122775078	0.298322916030884	0.0528414696455002	
2893	22.609375	0.13660991191864	0.275034099817276	0.0887230932712555	0.158886358141899	0.298476457595825	0.066878005862236	0.129614010453224	0.296708106994629	0.0916637852787971	0.0843378454446793	0.286922723054886	0.0292398948222399	0.0888059660792351	0.276457756757736	0.0524349510669708	0.0780126303434372	0.296335488557816	0.05218156427145	
2894	22.617187	0.129286661744118	0.272069007158279	0.0881641879677773	0.152073591947556	0.295106828212738	0.0664665997028351	0.122712589800358	0.293832689523697	0.0911877900362015	0.0773914754390717	0.284925401210785	0.0286194980144501	0.0818780958652496	0.274314969778061	0.0517462678253651	0.0710749551653862	0.29450061917305	0.0515708513557911	
2895	22.625	0.121735520660877	0.269159704446793	0.08765509724617	0.144970282912254	0.291837841272354	0.0659106075763702	0.115566402673721	0.291074097156525	0.0906473398208618	0.0701503157615662	0.283057272434235	0.0280118118971586	0.0744630545377731	0.27220743894577	0.0510586835443974	0.064021922647953	0.292704671621323	0.0509777553379536	
2896	22.632812	0.113925717771053	0.266353130340576	0.0871084481477737	0.137690484523773	0.288640707731247	0.0654414668679237	0.108204491436481	0.288369566202164	0.0901123210787773	0.0622382871806622	0.281354784965515	0.0274426639080048	0.0662410259246826	0.270624279975891	0.0505134053528309	0.0568223185837269	0.291049689054489	0.0503526069223881	
2897	22.640625	0.106044262647629	0.263665556907654	0.0865830779075623	0.130242720246315	0.285485833883286	0.0650335177779198	0.10070077329874	0.285770505666733	0.0895330011844635	0.0551786795258522	0.2796610891819	0.0267930962145329	0.0590906888246536	0.2682845890522	0.0497746504843235	0.0494291745126247	0.289484769105911	0.0497436933219433	
2898	22.648437	0.0980555787682533	0.261116176843643	0.086269699037075	0.122608587145805	0.28244349360466	0.0644692555069923	0.093075729906559	0.283300787210464	0.0890554264187813	0.0475560761988163	0.278147578239441	0.026151480153203	0.0510877668857574	0.2665895819664	0.0491752326488495	0.0419210568070412	0.28805485367775	0.0490628257393837	
2899	22.65625	0.0898288637399673	0.258684515953064	0.0857447385787964	0.114828936755657	0.279507011175156	0.0639429241418839	0.0853225141763687	0.280927687883377	0.0885428264737129	0.0392505750060081	0.276712477207184	0.025581868365407	0.0426410585641861	0.265494495630264	0.0486293658614159	0.0343615785241127	0.286788940429688	0.048465333878994	
